<?xml version="1.0" encoding="utf-8"?>
<!-- Generator: Adobe Illustrator 22.1.0, SVG Export Plug-In . SVG Version: 6.00 Build 0)  -->
<svg version="1.1"
	 id="svg3425" inkscape:version="0.91 r13725" sodipodi:docname="byu_medallion_black_white.svg" xmlns:cc="http://creativecommons.org/ns#" xmlns:dc="http://purl.org/dc/elements/1.1/" xmlns:inkscape="http://www.inkscape.org/namespaces/inkscape" xmlns:rdf="http://www.w3.org/1999/02/22-rdf-syntax-ns#" xmlns:sodipodi="http://sodipodi.sourceforge.net/DTD/sodipodi-0.dtd" xmlns:svg="http://www.w3.org/2000/svg"
	 xmlns="http://www.w3.org/2000/svg" xmlns:xlink="http://www.w3.org/1999/xlink" x="0px" y="0px" viewBox="0 0 1500 1500"
	 style="enable-background:new 0 0 1500 1500;" xml:space="preserve">
<style type="text/css">
	.st0{fill:#FFFFF1;}
</style>
<sodipodi:namedview  bordercolor="#666666" borderopacity="1" gridtolerance="10" guidetolerance="10" id="namedview3427" inkscape:current-layer="svg3425" inkscape:cx="750" inkscape:cy="890.73495" inkscape:pageopacity="0" inkscape:pageshadow="2" inkscape:window-height="1416" inkscape:window-maximized="1" inkscape:window-width="2495" inkscape:window-x="65" inkscape:window-y="24" inkscape:zoom="0.85266667" objecttolerance="10" pagecolor="#ffffff" showgrid="false">
	</sodipodi:namedview>
<g>
	<path class="st0" d="M865.3,1008c0-21.8-15.8-31.3-38.8-31.5c-10.5,0-18,1-21.5,2v61.5h22.3C850.5,1040,865.3,1027.2,865.3,1008z"
		/>
	<path class="st0" d="M971.1,676c-36,0-54,33.3-54,70.3c0,36,19.5,68.3,53.8,68.3c34.5,0,54-31.8,54-70
		C1024.9,711,1007.4,676,971.1,676z"/>
	<path class="st0" d="M586.9,411c-3.8-11-6.3-21-8.8-30.8h-0.5c-2.5,10-5.3,20.3-8.5,30.5l-16.5,48.8h50.8L586.9,411z"/>
	<path class="st0" d="M637.4,676c-36,0-54,33.3-54,70.3c0,36,19.5,68.3,53.8,68.3c34.5,0,54-31.8,54-70
		C691.1,711,673.6,676,637.4,676z"/>
	<path class="st0" d="M750,58.5C368.1,58.5,58.5,368.1,58.5,750s309.6,691.5,691.5,691.5s691.5-309.6,691.5-691.5
		S1131.9,58.5,750,58.5z M916.4,358.2c21,0,34.3,4.5,40,7.5l-5.3,17.8c-8.3-4-20-7-34-7c-39.5,0-65.8,25.3-65.8,69.5
		c0,41.3,23.8,67.8,64.8,67.8c13.3,0,26.8-2.8,35.5-7l4.5,17.3c-8,4-24,8-44.5,8c-47.5,0-83.3-30-83.3-85.3
		C828.4,394,864.1,358.2,916.4,358.2z M673.9,361h23.8l54,85.3c12.5,19.8,22.3,37.5,30.3,54.8l0.5-0.3c-2-22.5-2.5-43-2.5-69.3V361
		h20.5v168.5h-22L724.9,444c-11.8-18.8-23-38-31.5-56.3l-0.8,0.3c1.3,21.3,1.8,41.5,1.8,69.5v72h-20.5V361z M591.6,361l57.5,168.5
		h-23.3l-18-53h-59.8l-17.5,53h-22.5L565.4,361H591.6z M440.4,529.5h-21.8V361h90.8v18.3h-69v56h63.8v18h-63.8V529.5z M461.9,661
		h21.8v150.3h72v18.3h-93.8V661z M622.5,1129.5h-22v-79H519v79h-21.8V961H519v70.5h81.5V961h22V1129.5z M560.1,746.7
		c0-53.5,33.3-88.5,78.3-88.5c46,0,75.8,35.3,75.8,85.3c0,58-35.3,88.8-78.3,88.8C591.4,832.2,560.1,797.7,560.1,746.7z M755,1129.5
		h-94.7V961h91v18.3H682v53.3h65.5v18H682v60.8h73V1129.5z M732.4,746.2c0.3-50.3,34.7-87,91.2-87c19.5,0,34.8,4.3,42,7.8l-5.3,17.8
		c-9-4-20.3-7.3-37.3-7.3c-41,0-67.8,25.5-67.8,67.8c0,42.8,25.8,68,65,68c14.3,0,24-2,29-4.5v-50.3h-34.3V741h55.5v81
		c-9.8,3.5-29,9.3-51.8,9.3c-25.5,0-46.5-6.5-63-22.3C741.4,795,732.4,772.5,732.4,746.2z M870.5,1129.5
		c-2.8-4.8-6.5-19.3-11.3-40.3c-5-23.3-14-32-33.8-32.8H805v73h-21.8V963.2c11-2.3,26.8-3.5,41.8-3.5c23.3,0,38.3,4.3,48.8,13.8
		c8.5,7.5,13.3,19,13.3,32c0,22.3-14,37-31.8,43v0.8c13,4.5,20.8,16.5,24.8,34c5.5,23.5,9.5,39.8,13,46.3H870.5z M1012.5,1129.5
		h-94.8V961h91v18.3h-69.3v53.3h65.5v18h-65.5v60.8h73V1129.5z M969.6,832.2c-44.5,0-75.8-34.5-75.8-85.5
		c0-53.5,33.3-88.5,78.3-88.5c46,0,75.8,35.3,75.8,85.3C1047.9,801.5,1012.6,832.2,969.6,832.2z M1043.6,457.7v71.8h-22V458
		l-53.3-97h24.8l23.8,46.5c6.5,12.8,11.5,23,16.8,34.8h0.5c4.8-11,10.5-22,17-34.8l24.3-46.5h24.8L1043.6,457.7z"/>
</g>
</svg>
